
<svg version="1.1" xmlns="http://www.w3.org/2000/svg" width="90" height="70">
<path d="M0 0 C0.99 0.33 1.98 0.66 3 1 C3 9.91 3 18.82 3 28 C1.68 28 0.36 28 -1 28 C-2.75 25.5 -2.75 25.5 -4 23 C-4.39832031 23.6496875 -4.79664063 24.299375 -5.20703125 24.96875 C-6.00173828 26.22171875 -6.00173828 26.22171875 -6.8125 27.5 C-7.33457031 28.3353125 -7.85664063 29.170625 -8.39453125 30.03125 C-8.92433594 30.6809375 -9.45414063 31.330625 -10 32 C-10.99 32 -11.98 32 -13 32 C-13 22.76 -13 13.52 -13 4 C-9 5 -9 5 -6 8 C-4.02 5.36 -2.04 2.72 0 0 Z M-2 10 C-2.66 11.32 -3.32 12.64 -4 14 C-3.01 14.33 -2.02 14.66 -1 15 C-1 13.35 -1 11.7 -1 10 C-1.33 10 -1.66 10 -2 10 Z M-9 18 C-8.67 18.99 -8.34 19.98 -8 21 C-7.67 20.01 -7.34 19.02 -7 18 C-7.66 18 -8.32 18 -9 18 Z M-2 18 C-1 20 -1 20 -1 20 Z " fill="#4DAE5B" transform="translate(16,18)"/>
<path d="M0 0 C0.99128906 0.01160156 1.98257813 0.02320312 3.00390625 0.03515625 C3.99261719 0.04417969 4.98132813 0.05320312 6 0.0625 C6.84691406 0.07410156 7.69382812 0.08570312 8.56640625 0.09765625 C9.22640625 0.09765625 9.88640625 0.09765625 10.56640625 0.09765625 C11.16453125 0.28328125 11.76265625 0.46890625 12.37890625 0.66015625 C15.02632419 1.18963984 16.94748387 0.64900833 19.56640625 0.09765625 C20.22640625 0.42765625 20.88640625 0.75765625 21.56640625 1.09765625 C21.56640625 3.07765625 21.56640625 5.05765625 21.56640625 7.09765625 C21.89640625 4.78765625 22.22640625 2.47765625 22.56640625 0.09765625 C24.21640625 0.09765625 25.86640625 0.09765625 27.56640625 0.09765625 C28.60587477 3.86572965 28.56640625 7.17515541 28.56640625 11.09765625 C12.89973958 11.09765625 12.89973958 11.09765625 8.56640625 10.09765625 C8.23640625 9.76765625 7.90640625 9.43765625 7.56640625 9.09765625 C7.56640625 9.75765625 7.56640625 10.41765625 7.56640625 11.09765625 C6.24640625 11.09765625 4.92640625 11.09765625 3.56640625 11.09765625 C3.56640625 8.78765625 3.56640625 6.47765625 3.56640625 4.09765625 C2.90640625 4.09765625 2.24640625 4.09765625 1.56640625 4.09765625 C1.84484375 5.27328125 1.84484375 5.27328125 2.12890625 6.47265625 C2.56640625 9.09765625 2.56640625 9.09765625 1.56640625 11.09765625 C-0.08359375 11.09765625 -1.73359375 11.09765625 -3.43359375 11.09765625 C-3.46047526 9.45191059 -3.47993498 7.80604212 -3.49609375 6.16015625 C-3.50769531 5.24363281 -3.51929688 4.32710937 -3.53125 3.3828125 C-3.39529431 0.20144937 -3.18882764 0.12796259 0 0 Z M10.56640625 3.09765625 C10.56640625 4.74765625 10.56640625 6.39765625 10.56640625 8.09765625 C11.22640625 8.09765625 11.88640625 8.09765625 12.56640625 8.09765625 C12.56640625 6.44765625 12.56640625 4.79765625 12.56640625 3.09765625 C11.90640625 3.09765625 11.24640625 3.09765625 10.56640625 3.09765625 Z M-1.43359375 7.09765625 C-0.43359375 9.09765625 -0.43359375 9.09765625 -0.43359375 9.09765625 Z " fill="#060E14" transform="translate(56.43359375,28.90234375)"/>
<path d="M0 0 C4 1 4 1 6 4 C6 5.32 6 6.64 6 8 C5.34 8 4.68 8 4 8 C4.33 10.64 4.66 13.28 5 16 C6.32 14.02 7.64 12.04 9 10 C9.99 10.33 10.98 10.66 12 11 C11.44332815 15.54615347 9.64750318 18.52874524 7.125 22.3125 C6.42632812 23.38113281 5.72765625 24.44976562 5.0078125 25.55078125 C4.34523438 26.35902344 3.68265625 27.16726562 3 28 C2.01 28 1.02 28 0 28 C0 18.76 0 9.52 0 0 Z " fill="#AA2A2F" transform="translate(3,22)"/>
<path d="M0 0 C4 1 4 1 5 2 C5.04063832 3.66617115 5.042721 5.33388095 5 7 C4.34 7 3.68 7 3 7 C3.03480469 7.97582031 3.06960938 8.95164062 3.10546875 9.95703125 C3.13253906 11.22933594 3.15960938 12.50164063 3.1875 13.8125 C3.22230469 15.07707031 3.25710938 16.34164062 3.29296875 17.64453125 C3 21 3 21 0 24 C0 16.08 0 8.16 0 0 Z " fill="#D0862D" transform="translate(3,22)"/>
<path d="M0 0 C0.99 0.33 1.98 0.66 3 1 C3 4 3 4 1.62890625 5.4375 C0.82259766 6.2109375 0.82259766 6.2109375 0 7 C-1.12746037 8.93152345 -1.12746037 8.93152345 -2.0625 11 C-3.25442363 13.52745252 -4.43526227 15.65289341 -6 18 C-6.99 18 -7.98 18 -9 18 C-9.56881109 13.12447639 -7.81710966 10.68100711 -5.0625 6.75 C-4.33160156 5.69296875 -3.60070312 4.6359375 -2.84765625 3.546875 C-1 1 -1 1 0 0 Z " fill="#2F8E81" transform="translate(16,18)"/>
<path d="M0 0 C2.375 -0.125 2.375 -0.125 5 0 C7 2 7 2 7.1875 5.5 C7 9 7 9 6 11 C3.67843403 11.40729228 1.3431213 11.74438677 -1 12 C-0.9278125 11.38511719 -0.855625 10.77023438 -0.78125 10.13671875 C-0.64203125 8.92435547 -0.64203125 8.92435547 -0.5 7.6875 C-0.4071875 6.88699219 -0.314375 6.08648437 -0.21875 5.26171875 C0.04813463 2.88103445 0.04813463 2.88103445 0 0 Z M3 3 C3 4.98 3 6.96 3 9 C3.33 9 3.66 9 4 9 C4 7.02 4 5.04 4 3 C3.67 3 3.34 3 3 3 Z " fill="#050D12" transform="translate(39,29)"/>
<path d="M0 0 C1.98 0 3.96 0 6 0 C6 3.63 6 7.26 6 11 C4.02 11 2.04 11 0 11 C0 7.37 0 3.74 0 0 Z " fill="#050C13" transform="translate(46,29)"/>
<path d="M0 0 C1.32 0.33 2.64 0.66 4 1 C5.25 7.625 5.25 7.625 3 11 C1.35 10.67 -0.3 10.34 -2 10 C-3.06351675 6.61608307 -3.21442982 5.4195366 -1.5625 2.1875 C-1.046875 1.465625 -0.53125 0.74375 0 0 Z M1 3 C0.67 4.65 0.34 6.3 0 8 C0.99 8.495 0.99 8.495 2 9 C2 7.02 2 5.04 2 3 C1.67 3 1.34 3 1 3 Z " fill="#050C12" transform="translate(34,29)"/>
<path d="M0 0 C2.125 0.375 2.125 0.375 4 1 C4 2.32 4 3.64 4 5 C3.34 5 2.68 5 2 5 C2 5.99 2 6.98 2 8 C2.66 8 3.32 8 4 8 C4 8.99 4 9.98 4 11 C2.33388095 11.042721 0.66617115 11.04063832 -1 11 C-2.89488952 9.10511048 -2.18019112 6.42860854 -2.23046875 3.91015625 C-2 2 -2 2 0 0 Z " fill="#091118" transform="translate(27,29)"/>
<path d="M0 0 C0.33 1.32 0.66 2.64 1 4 C0.34 4 -0.32 4 -1 4 C-0.67 6.64 -0.34 9.28 0 12 C1.32 10.02 2.64 8.04 4 6 C4.99 6.33 5.98 6.66 7 7 C6.625 9.4375 6.625 9.4375 6 12 C5.01 12.495 5.01 12.495 4 13 C3.67 12.34 3.34 11.68 3 11 C2.319375 11.99 2.319375 11.99 1.625 13 C1.08875 13.66 0.5525 14.32 0 15 C-0.66 15 -1.32 15 -2 15 C-2 11.04 -2 7.08 -2 3 C-1.34 3 -0.68 3 0 3 C0 2.01 0 1.02 0 0 Z " fill="#8C3C33" transform="translate(8,26)"/>
<path d="M0 0 C0.33 0 0.66 0 1 0 C1 7.92 1 15.84 1 24 C-0.32 24 -1.64 24 -3 24 C-5.1519437 20.77208445 -5.20086443 19.71599191 -5 16 C-4.01 16.33 -3.02 16.66 -2 17 C-2 18.98 -2 20.96 -2 23 C-1.34 23 -0.68 23 0 23 C0 15.41 0 7.82 0 0 Z " fill="#4B975F" transform="translate(18,22)"/>
<path d="M0 0 C0.99 0 1.98 0 3 0 C2.5020163 3.73487777 2.12508244 5.81237635 0 9 C-0.99 9 -1.98 9 -3 9 C-3.2519555 5.97653399 -3.20421041 4.3597993 -1.6875 1.6875 C-1.130625 1.130625 -0.57375 0.57375 0 0 Z " fill="#299486" transform="translate(10,27)"/>
<path d="M0 0 C2 2 2 2 2.125 4.625 C2.08375 5.40875 2.0425 6.1925 2 7 C-0.31 7.33 -2.62 7.66 -5 8 C-4.67 7.01 -4.34 6.02 -4 5 C-3.01 4.67 -2.02 4.34 -1 4 C-0.26676204 1.98491642 -0.26676204 1.98491642 0 0 Z " fill="#09141A" transform="translate(43,33)"/>
<path d="M0 0 C2.0625 0.4375 2.0625 0.4375 4 1 C4 2.32 4 3.64 4 5 C3.01 4.67 2.02 4.34 1 4 C0.01 4.33 -0.98 4.66 -2 5 C-1.125 1.125 -1.125 1.125 0 0 Z " fill="#030A10" transform="translate(27,29)"/>
<path d="M0 0 C0.99 0.33 1.98 0.66 3 1 C3 2.98 3 4.96 3 7 C3.99 7.33 4.98 7.66 6 8 C4.68 8 3.36 8 2 8 C-0.1519437 4.77208445 -0.20086443 3.71599191 0 0 Z " fill="#2D804A" transform="translate(13,38)"/>
<path d="M0 0 C1.65 0 3.3 0 5 0 C4.67 2.31 4.34 4.62 4 7 C3.34 7 2.68 7 2 7 C2 5.35 2 3.7 2 2 C1.34 2 0.68 2 0 2 C0 1.34 0 0.68 0 0 Z " fill="#02070C" transform="translate(59,30)"/>
</svg>
